HIERARCHY
ROOT Hips
{
	OFFSET 0.000000 0.000000 0.000000
	CHANNELS 6 Xposition Yposition Zposition Zrotation Yrotation Xrotation 
	JOINT LHipJoint
	{
		OFFSET 0.000000 0.000000 0.000000
		CHANNELS 3 Zrotation Yrotation Xrotation
		JOINT LeftUpLeg
		{
			OFFSET 1.363060 -1.794630 0.839290
			CHANNELS 3 Zrotation Yrotation Xrotation
			JOINT LeftLeg
			{
				OFFSET 2.448110 -6.726130 0.000000
				CHANNELS 3 Zrotation Yrotation Xrotation
				JOINT LeftFoot
				{
					OFFSET 2.562200 -7.039590 0.000000
					CHANNELS 3 Zrotation Yrotation Xrotation
					JOINT LeftToeBase
					{
						OFFSET 0.157640 -0.433110 2.322550
						CHANNELS 3 Zrotation Yrotation Xrotation
						End Site
						{
							OFFSET 0.000000 0.000000 0.000000
						}
					}
				}
			}
		}
	}
	JOINT RHipJoint
	{
		OFFSET 0.000000 0.000000 0.000000
		CHANNELS 3 Zrotation Yrotation Xrotation
		JOINT RightUpLeg
		{
			OFFSET -1.305520 -1.794630 0.839290
			CHANNELS 3 Zrotation Yrotation Xrotation
			JOINT RightLeg
			{
				OFFSET -2.542530 -6.985550 0.000000
				CHANNELS 3 Zrotation Yrotation Xrotation
				JOINT RightFoot
				{
					OFFSET -2.568260 -7.056230 0.000000
					CHANNELS 3 Zrotation Yrotation Xrotation
					JOINT RightToeBase
					{
						OFFSET -0.164730 -0.452590 2.363150
						CHANNELS 3 Zrotation Yrotation Xrotation
						End Site
						{
							OFFSET 0.000000 0.000000 0.000000
						}
					}
				}
			}
		}
	}
	JOINT LowerBack
	{
		OFFSET 0.000000 0.000000 0.000000
		CHANNELS 3 Zrotation Yrotation Xrotation
		JOINT Spine
		{
			OFFSET 0.028270 2.035590 -0.193380
			CHANNELS 3 Zrotation Yrotation Xrotation
			JOINT Spine1
			{
				OFFSET 0.056720 2.048850 -0.042750
				CHANNELS 3 Zrotation Yrotation Xrotation
				JOINT Neck
				{
					OFFSET 0.000000 0.000000 0.000000
					CHANNELS 3 Zrotation Yrotation Xrotation
					JOINT Neck1
					{
						OFFSET -0.054170 1.746240 0.172020
						CHANNELS 3 Zrotation Yrotation Xrotation
						JOINT Head
						{
							OFFSET 0.104070 1.761360 -0.123970
							CHANNELS 3 Zrotation Yrotation Xrotation
							End Site
							{
								OFFSET 0.000000 0.000000 0.000000
							}
						}
					}
				}
				JOINT LeftShoulder
				{
					OFFSET 0.000000 0.000000 0.000000
					CHANNELS 3 Zrotation Yrotation Xrotation
					JOINT LeftArm
					{
						OFFSET 3.362410 1.200890 -0.311210
						CHANNELS 3 Zrotation Yrotation Xrotation
						JOINT LeftForeArm
						{
							OFFSET 4.983000 -0.000000 -0.000000
							CHANNELS 3 Zrotation Yrotation Xrotation
							JOINT LeftHand
							{
								OFFSET 3.483560 -0.000000 -0.000000
								CHANNELS 3 Zrotation Yrotation Xrotation
								JOINT LeftFingerBase
								{
									OFFSET 0.000000 0.000000 0.000000
									CHANNELS 3 Zrotation Yrotation Xrotation
									JOINT LeftHandIndex1
									{
										OFFSET 0.715260 -0.000000 -0.000000
										CHANNELS 3 Zrotation Yrotation Xrotation
										End Site
										{
											OFFSET 0.000000 0.000000 0.000000
										}
									}
								}
								JOINT LThumb
								{
									OFFSET 0.000000 0.000000 0.000000
									CHANNELS 3 Zrotation Yrotation Xrotation
									End Site
									{
										OFFSET 0.000000 0.000000 0.000000
									}
								}
							}
						}
					}
				}
				JOINT RightShoulder
				{
					OFFSET 0.000000 0.000000 0.000000
					CHANNELS 3 Zrotation Yrotation Xrotation
					JOINT RightArm
					{
						OFFSET -3.136600 1.374050 -0.404650
						CHANNELS 3 Zrotation Yrotation Xrotation
						JOINT RightForeArm
						{
							OFFSET -5.241900 -0.000000 -0.000000
							CHANNELS 3 Zrotation Yrotation Xrotation
							JOINT RightHand
							{
								OFFSET -3.444170 -0.000000 -0.000000
								CHANNELS 3 Zrotation Yrotation Xrotation
								JOINT RightFingerBase
								{
									OFFSET 0.000000 0.000000 0.000000
									CHANNELS 3 Zrotation Yrotation Xrotation
									JOINT RightHandIndex1
									{
										OFFSET -0.622530 -0.000000 -0.000000
										CHANNELS 3 Zrotation Yrotation Xrotation
										End Site
										{
											OFFSET 0.000000 0.000000 0.000000
										}
									}
								}
								JOINT RThumb
								{
									OFFSET 0.000000 0.000000 0.000000
									CHANNELS 3 Zrotation Yrotation Xrotation
									End Site
									{
										OFFSET 0.000000 0.000000 0.000000
									}
								}
							}
						}
					}
				}
			}
		}
	}
}
MOTION
Frames: 6
Frame Time: 0.008333
4.911418 17.353517 1.397270 8.376496 -78.871723 9.794979 -10.560652 0.615526 0.437517 -9.146564 2.180290 -20.053103 -2.296040 -1.049267 -2.213114 0.290893 6.574591 4.192693 2.162200 -0.000001 -37.948000 9.930625 0.290820 -1.925247 1.238599 -10.289998 -13.433839 1.840289 1.260547 -4.284678 -1.176348 -11.488914 7.427628 -4.437100 0.000000 -63.223500 -1.718274 -2.980049 3.279543 -0.457644 -2.829915 -2.419814 -4.314084 -2.811186 -0.888043 9.945774 -9.920078 -0.943375 -3.461860 -0.319431 1.689566 0.000000 0.000000 0.000000 6.751179 -6.356161 -1.826189 -73.814932 -6.209834 31.031403 179.906243 -74.799991 179.921974 8.870784 -1.532236 -0.163209 -0.158203 0.573432 0.000000 0.000000 0.000000 0.000000 0.000000 0.000000 0.000000 12.518410 -9.810320 2.638707 53.310637 24.783401 47.700506 -0.113257 89.791159 -0.012918 -5.980109 3.943985 -0.230449 0.247855 -0.333327 -0.000000 0.000000 0.000000 0.000000 0.000000 0.000000 0.000000 
4.907938 17.353395 1.388640 8.160152 -78.274999 9.696866 -10.555660 0.630227 0.519793 -9.034291 1.862754 -19.744963 -2.280129 -1.040486 -2.165874 0.278243 6.468690 4.249912 2.137300 0.000000 -38.051300 9.947688 0.236463 -1.974627 1.234711 -10.577119 -12.938701 1.811248 1.251234 -4.335291 -1.242039 -11.781264 7.340949 -4.493200 -0.000001 -63.110800 -1.951027 -2.897229 3.244304 -0.485447 -2.732953 -2.409028 -4.190441 -2.717237 -0.823719 9.721139 -9.592013 -0.828854 -3.441241 -0.319301 1.720456 0.000000 0.000000 0.000000 6.675304 -6.332978 -1.831440 -73.599344 -6.940962 31.396131 179.918353 -74.904235 179.921508 8.880488 -1.515203 -0.162300 -0.161500 0.576172 -0.000000 0.000000 0.000000 0.000000 0.000000 0.000000 0.000000 12.384214 -9.485073 2.809449 51.898677 25.812309 48.272289 -0.110378 89.817189 -0.012059 -5.801419 3.833590 -0.217504 0.244289 -0.326851 -0.000000 0.000000 0.000000 0.000000 0.000000 0.000000 0.000000 
4.904282 17.353200 1.379615 7.963358 -77.688125 9.577272 -10.548878 0.646560 0.601748 -8.931381 1.566762 -19.439203 -2.267264 -1.033043 -2.125158 0.265449 6.352134 4.312638 2.109200 -0.000001 -38.160300 9.966987 0.179410 -2.014633 1.227004 -10.848196 -12.447445 1.781028 1.242594 -4.393374 -1.310880 -12.078024 7.260150 -4.549100 0.000000 -62.994700 -2.186134 -2.807741 3.198135 -0.512839 -2.628796 -2.399565 -4.060012 -2.616299 -0.758020 9.471677 -9.242377 -0.708461 -3.415228 -0.318928 1.753073 0.000000 0.000000 0.000000 6.591296 -6.299764 -1.836385 -73.396967 -7.684598 31.752827 179.930075 -75.013137 179.921062 8.887216 -1.499749 -0.161395 -0.164574 0.578932 -0.000000 0.000000 0.000000 0.000000 0.000000 0.000000 0.000000 12.203844 -9.130129 2.981958 50.425127 26.878265 48.795890 -0.109369 89.883685 -0.011151 -5.611694 3.765810 -0.206664 0.239853 -0.321369 -0.000000 0.000000 0.000000 0.000000 0.000000 0.000000 0.000000 
4.900357 17.353016 1.370290 7.781563 -77.112337 9.445354 -10.540581 0.664451 0.684012 -8.836784 1.291427 -19.139084 -2.257208 -1.027158 -2.093209 0.252743 6.226636 4.382760 2.078499 -0.000000 -38.276300 9.988042 0.119607 -2.044381 1.217434 -11.099639 -11.964179 1.749637 1.234792 -4.457835 -1.382788 -12.381838 7.185770 -4.606500 -0.000000 -62.870600 -2.422399 -2.712386 3.139559 -0.539782 -2.518314 -2.393389 -3.923440 -2.509402 -0.697563 9.199190 -8.864224 -0.577860 -3.384453 -0.318423 1.788713 0.000000 0.000000 0.000000 6.504655 -6.276391 -1.842246 -73.212668 -8.409997 32.085439 179.939626 -75.115649 179.920639 8.889640 -1.486992 -0.160697 -0.167048 0.581694 -0.000000 0.000000 0.000000 0.000000 0.000000 0.000000 0.000000 11.979434 -8.738231 3.157299 48.881572 27.959932 49.253908 -0.110167 89.989942 -0.010112 -5.386530 3.737191 -0.196933 0.233956 -0.316826 -0.000000 0.000000 0.000000 0.000000 0.000000 0.000000 0.000000 
4.896411 17.352766 1.360564 7.618710 -76.550435 9.293235 -10.530113 0.683032 0.765437 -8.748459 1.026969 -18.842452 -2.248403 -1.021614 -2.057485 0.239772 6.105753 4.450960 2.049600 0.000000 -38.398100 10.010974 0.058590 -2.067767 1.203846 -11.336237 -11.484305 1.717346 1.227168 -4.527696 -1.456997 -12.685306 7.116850 -4.662300 -0.000000 -62.743400 -2.658226 -2.611413 3.074675 -0.565548 -2.401819 -2.386850 -3.778616 -2.396645 -0.632570 8.898299 -8.478232 -0.449251 -3.346443 -0.317485 1.823870 0.000000 0.000000 0.000000 6.411209 -6.232925 -1.849700 -73.044363 -9.148682 32.410873 179.948576 -75.225331 179.920225 8.891256 -1.473915 -0.160004 -0.169332 0.584275 -0.000000 0.000000 0.000000 0.000000 0.000000 0.000000 0.000000 11.699734 -8.329903 3.333445 47.273466 29.084662 49.652943 179.889152 89.893429 179.991102 -5.124553 3.763181 -0.188412 0.226472 -0.313275 -0.000000 0.000000 0.000000 0.000000 0.000000 0.000000 0.000000 
4.892406 17.352485 1.350435 7.474774 -76.002976 9.123378 -10.517527 0.702162 0.846150 -8.666009 0.770006 -18.550049 -2.240421 -1.016295 -2.017322 0.226597 5.993349 4.516502 2.023600 -0.000000 -38.525600 10.035571 -0.003066 -2.085767 1.186421 -11.559300 -11.009392 1.684368 1.219664 -4.601945 -1.533249 -12.986943 7.053492 -4.716300 -0.000000 -62.612900 -2.891263 -2.505793 3.004481 -0.589607 -2.280447 -2.379648 -3.625263 -2.279180 -0.562534 8.567358 -8.091490 -0.326178 -3.300914 -0.316069 1.857600 0.000000 0.000000 0.000000 6.310997 -6.168608 -1.859862 -72.892500 -9.894442 32.726069 179.956472 -75.337571 179.919826 8.893476 -1.459703 -0.159120 -0.171413 0.586590 -0.000000 0.000000 0.000000 0.000000 0.000000 0.000000 0.000000 11.362276 -7.912641 3.510230 45.597240 30.254555 49.987441 179.889469 89.782353 179.992526 -4.811152 3.840265 -0.180304 0.217018 -0.310529 -0.000000 0.000000 0.000000 0.000000 0.000000 0.000000 0.000000 
